<svg width="1" height="1" viewBox="0 0 1 1" fill="none" xmlns="http://www.w3.org/2000/svg">
<path d="M0.93583 0.250001C0.903746 0.264585 0.869163 0.274168 0.83333 0.278751C0.869997 0.256668 0.89833 0.221668 0.911663 0.179585C0.87708 0.200418 0.838747 0.215001 0.79833 0.223335C0.765413 0.187501 0.719163 0.166668 0.666663 0.166668C0.568747 0.166668 0.488747 0.246668 0.488747 0.345418C0.488747 0.359585 0.490413 0.373335 0.49333 0.386251C0.344997 0.378751 0.212913 0.307501 0.124997 0.199585C0.10958 0.225835 0.10083 0.256668 0.10083 0.289168C0.10083 0.351251 0.13208 0.406251 0.180413 0.437501C0.15083 0.437501 0.12333 0.429168 0.0991632 0.416668V0.417918C0.0991632 0.504585 0.16083 0.577085 0.242497 0.593335C0.216277 0.60051 0.188751 0.601508 0.16208 0.596251C0.173397 0.631771 0.195561 0.662852 0.225456 0.685123C0.255351 0.707395 0.291474 0.719738 0.328747 0.720418C0.265564 0.770436 0.187246 0.797473 0.106663 0.797085C0.0924965 0.797085 0.0783299 0.796251 0.0641632 0.794585C0.14333 0.845418 0.237497 0.875001 0.33833 0.875001C0.666663 0.875001 0.84708 0.602501 0.84708 0.366251C0.84708 0.358335 0.84708 0.350835 0.846663 0.342918C0.881663 0.317918 0.911663 0.286251 0.93583 0.250001V0.250001Z" fill="black"/>
</svg>
