<svg width="1" height="1" viewBox="0 0 1 1" fill="none" xmlns="http://www.w3.org/2000/svg">
<path d="M0.791667 0.125C0.813768 0.125 0.834964 0.13378 0.850592 0.149408C0.86622 0.165036 0.875 0.186232 0.875 0.208333V0.791667C0.875 0.813768 0.86622 0.834964 0.850592 0.850592C0.834964 0.86622 0.813768 0.875 0.791667 0.875H0.208333C0.186232 0.875 0.165036 0.86622 0.149408 0.850592C0.13378 0.834964 0.125 0.813768 0.125 0.791667V0.208333C0.125 0.186232 0.13378 0.165036 0.149408 0.149408C0.165036 0.13378 0.186232 0.125 0.208333 0.125H0.791667ZM0.770833 0.770833V0.55C0.770833 0.513975 0.756522 0.479425 0.731049 0.453951C0.705575 0.428478 0.671025 0.414167 0.635 0.414167C0.599583 0.414167 0.558333 0.435833 0.538333 0.468333V0.422083H0.422083V0.770833H0.538333V0.565417C0.538333 0.533333 0.564167 0.507083 0.59625 0.507083C0.611721 0.507083 0.626558 0.513229 0.637498 0.524169C0.648438 0.535108 0.654583 0.549946 0.654583 0.565417V0.770833H0.770833ZM0.286667 0.356667C0.305232 0.356667 0.323037 0.349292 0.336164 0.336164C0.349292 0.323037 0.356667 0.305232 0.356667 0.286667C0.356667 0.247917 0.325417 0.21625 0.286667 0.21625C0.267991 0.21625 0.25008 0.223669 0.236875 0.236875C0.223669 0.25008 0.21625 0.267991 0.21625 0.286667C0.21625 0.325417 0.247917 0.356667 0.286667 0.356667M0.344583 0.770833V0.422083H0.229167V0.770833H0.344583V0.770833Z" fill="black"/>
</svg>
