<svg width="1" height="1" viewBox="0 0 1 1" fill="none" xmlns="http://www.w3.org/2000/svg">
<path d="M0.499995 0.0833321C0.445277 0.0833321 0.391096 0.0941095 0.340543 0.115049C0.289991 0.135988 0.244058 0.16668 0.205367 0.205371C0.127227 0.283511 0.0833282 0.389492 0.0833282 0.499999C0.0833282 0.684165 0.202912 0.840415 0.368328 0.895832C0.389162 0.899165 0.395828 0.886249 0.395828 0.874999V0.804582C0.280412 0.829582 0.255828 0.748749 0.255828 0.748749C0.236662 0.700415 0.209578 0.687499 0.209578 0.687499C0.171662 0.661665 0.212495 0.662499 0.212495 0.662499C0.254162 0.665415 0.276245 0.705415 0.276245 0.705415C0.312495 0.768749 0.373745 0.749999 0.397495 0.739999C0.401245 0.712915 0.412078 0.694582 0.423745 0.684165C0.331245 0.673749 0.234162 0.637915 0.234162 0.479165C0.234162 0.432915 0.249995 0.395832 0.277078 0.366249C0.272912 0.355832 0.258328 0.312499 0.281245 0.256249C0.281245 0.256249 0.316245 0.244999 0.395828 0.298749C0.428745 0.289582 0.464578 0.284999 0.499995 0.284999C0.535412 0.284999 0.571245 0.289582 0.604162 0.298749C0.683745 0.244999 0.718745 0.256249 0.718745 0.256249C0.741662 0.312499 0.727078 0.355832 0.722912 0.366249C0.749995 0.395832 0.765828 0.432915 0.765828 0.479165C0.765828 0.638332 0.668328 0.673332 0.575412 0.683749C0.590412 0.696665 0.604162 0.722082 0.604162 0.760832V0.874999C0.604162 0.886249 0.610828 0.899582 0.632078 0.895832C0.797495 0.839999 0.916662 0.684165 0.916662 0.499999C0.916662 0.445281 0.905884 0.3911 0.884945 0.340547C0.864005 0.289995 0.833314 0.244062 0.794623 0.205371C0.755932 0.16668 0.709999 0.135988 0.659446 0.115049C0.608894 0.0941095 0.554712 0.0833321 0.499995 0.0833321V0.0833321Z" fill="black"/>
</svg>
