<svg width="281" height="41" viewBox="0 0 281 41" fill="none" xmlns="http://www.w3.org/2000/svg">
<g filter="url(#filter0_bii_2_93)">
<path d="M22.5 38L0 15.5V5.5H7.5V10.5L15 18V5.5H22.5V38ZM26.2 33V5.5H33.7V33H26.2ZM59.9 38L44.9 23V33H37.4V0.5L52.4 15.5V5.5H59.9V38ZM78.6 15.5V13H71.1V15.5H78.6ZM63.6 33V23H61.1L53.6 15.5H63.6V5.5H86.1V33H78.6V23H71.1V33H63.6ZM97.3 33V23L89.8 15.5V3L101.05 14.25L112.3 3V15.5L104.8 23V33H97.3ZM138.5 40.5L123.5 25.5V33H116V23H113.5L106 15.5H116V5.5H123.5V15.5H131V5.5H138.5V23H133.5L138.5 28V40.5ZM142.2 33V5.5H149.7V33H142.2ZM153.4 33V25.5H168.4V23H153.4V5.5H175.9V13H160.9V15.5H175.9V33H153.4ZM202.1 40.5L194.6 33V23H187.1V33H179.6V23H177.1L169.6 15.5H179.6V5.5H187.1V15.5H194.6V5.5H202.1V40.5ZM220.8 25.5V13H213.3V25.5H220.8ZM205.8 33V5.5H228.3V33H205.8ZM247 15.5V13H239.5V15.5H247ZM254.5 38L239.5 23V33H232V23H229.5L222 15.5H232V5.5H254.5V23H249.5L254.5 28V38ZM258.2 33V23H255.7L248.2 15.5H258.2V5.5H280.7V13H265.7V15.5H280.7V23H265.7V25.5H280.7V33H258.2Z" fill="black" fill-opacity="0.56"/>
</g>
<defs>
<filter id="filter0_bii_2_93" x="-20.8667" y="-20.3667" width="322.433" height="81.7333" filterUnits="userSpaceOnUse" color-interpolation-filters="sRGB">
<feFlood flood-opacity="0" result="BackgroundImageFix"/>
<feGaussianBlur in="BackgroundImage" stdDeviation="10.4333"/>
<feComposite in2="SourceAlpha" operator="in" result="effect1_backgroundBlur_2_93"/>
<feBlend mode="normal" in="SourceGraphic" in2="effect1_backgroundBlur_2_93" result="shape"/>
<feColorMatrix in="SourceAlpha" type="matrix" values="0 0 0 0 0 0 0 0 0 0 0 0 0 0 0 0 0 0 127 0" result="hardAlpha"/>
<feOffset dx="-10.4333" dy="10.4333"/>
<feGaussianBlur stdDeviation="5.21667"/>
<feComposite in2="hardAlpha" operator="arithmetic" k2="-1" k3="1"/>
<feColorMatrix type="matrix" values="0 0 0 0 1 0 0 0 0 1 0 0 0 0 1 0 0 0 0.1 0"/>
<feBlend mode="normal" in2="shape" result="effect2_innerShadow_2_93"/>
<feColorMatrix in="SourceAlpha" type="matrix" values="0 0 0 0 0 0 0 0 0 0 0 0 0 0 0 0 0 0 127 0" result="hardAlpha"/>
<feOffset dx="10.4333" dy="-10.4333"/>
<feGaussianBlur stdDeviation="5.21667"/>
<feComposite in2="hardAlpha" operator="arithmetic" k2="-1" k3="1"/>
<feColorMatrix type="matrix" values="0 0 0 0 0 0 0 0 0 0 0 0 0 0 0 0 0 0 0.1 0"/>
<feBlend mode="normal" in2="effect2_innerShadow_2_93" result="effect3_innerShadow_2_93"/>
</filter>
</defs>
</svg>
